HIERARCHY
ROOT SpineBase
{
  OFFSET 0.000000 0.000000 0.000000
  CHANNELS 6 Xposition Yposition Zposition Zrotation Xrotation Yrotation
  JOINT SpineMid
  {
    OFFSET 0.000000 33.019492 0.000000
    CHANNELS 3 Zrotation Xrotation Yrotation
    JOINT SpineShoulder
    {
      OFFSET -0.048349 24.431980 -0.799172
      CHANNELS 3 Zrotation Xrotation Yrotation
      JOINT Neck
      {
        OFFSET -0.045671 8.055876 -0.615155
        CHANNELS 3 Zrotation Xrotation Yrotation
        JOINT Head
        {
          OFFSET -7.894027 9.120506 -0.766026
          CHANNELS 3 Zrotation Xrotation Yrotation
          End Site
          {
            OFFSET 0 0 0
          }
        }
      }
      JOINT ShoulderLeft
      {
        OFFSET -12.774366 -7.502188 12.810525
        CHANNELS 3 Zrotation Xrotation Yrotation
        JOINT ElbowLeft
        {
          OFFSET -0.526219 -22.615975 -3.221621
          CHANNELS 3 Zrotation Xrotation Yrotation
          JOINT WristLeft
          {
            OFFSET 8.696004 -10.023924 -17.265098
            CHANNELS 3 Zrotation Xrotation Yrotation
            JOINT HandLeft
            {
              OFFSET 1.977772 -4.397952 -5.473584
              CHANNELS 3 Zrotation Xrotation Yrotation
              JOINT HandTipLeft
              {
                OFFSET 6.222703 -6.449737 -3.149896
                CHANNELS 3 Zrotation Xrotation Yrotation
                End Site
                {
                  OFFSET 0 0 0
                }
              }
              JOINT ThumbLeft
              {
                OFFSET -4.072012 -4.772201 -2.594310
                CHANNELS 3 Zrotation Xrotation Yrotation
                End Site
                {
                  OFFSET 0 0 0
                }
              }
            }
          }
        }
      }
      JOINT ShoulderRight
      {
        OFFSET 11.021745 -2.186273 -11.344187
        CHANNELS 3 Zrotation Xrotation Yrotation
        JOINT ElbowRight
        {
          OFFSET 4.817964 -20.956491 -6.261910
          CHANNELS 3 Zrotation Xrotation Yrotation
          JOINT WristRight
          {
            OFFSET -9.832764 -18.869569 -2.555975
            CHANNELS 3 Zrotation Xrotation Yrotation
            JOINT HandRight
            {
              OFFSET -4.927329 -6.011687 4.257880
              CHANNELS 3 Zrotation Xrotation Yrotation
              JOINT HandTipRight
              {
                OFFSET -7.066778 -4.351412 -0.314438
                CHANNELS 3 Zrotation Xrotation Yrotation
                End Site
                {
                  OFFSET 0 0 0
                }
              }
              JOINT ThumbRight
              {
                OFFSET -6.074521 4.164612 0.462625
                CHANNELS 3 Zrotation Xrotation Yrotation
                End Site
                {
                  OFFSET 0 0 0
                }
              }
            }
          }
        }
      }
    }
  }
  JOINT HipLeft
  {
    OFFSET -5.462765 -0.683108 1.351187
    CHANNELS 3 Zrotation Xrotation Yrotation
    JOINT KneeLeft
    {
      OFFSET 1.209700 -33.953878 0.597421
      CHANNELS 3 Zrotation Xrotation Yrotation
      JOINT AnkleLeft
      {
        OFFSET 7.622567 -36.040085 3.481404
        CHANNELS 3 Zrotation Xrotation Yrotation
        JOINT FootLeft
        {
          OFFSET -2.405246 -8.497575 -6.457349
          CHANNELS 3 Zrotation Xrotation Yrotation
          End Site
          {
            OFFSET 0 0 0
          }
        }
      }
    }
  }
  JOINT HipRight
  {
    OFFSET 4.861359 1.841172 -8.979141
    CHANNELS 3 Zrotation Xrotation Yrotation
    JOINT KneeRight
    {
      OFFSET 6.538939 -32.778679 -4.089183
      CHANNELS 3 Zrotation Xrotation Yrotation
      JOINT AnkleRight
      {
        OFFSET 4.723533 -39.943641 7.300142
        CHANNELS 3 Zrotation Xrotation Yrotation
        JOINT FootRight
        {
          OFFSET -2.448553 -8.740326 -5.340518
          CHANNELS 3 Zrotation Xrotation Yrotation
          End Site
          {
            OFFSET 0 0 0
          }
        }
      }
    }
  }
}
MOTION
Frames: 6
Frame Time: 0.033333
30.733935 80.813267 367.690492 -0.000000 0.000000 45.017209 -0.000000 0.000000 -45.017209 -0.000000 0.000000 0.000000 -0.000000 0.000000 0.000000 0.000000 0.000000 0.000000 -0.000000 0.000000 0.000000 -0.000000 0.000000 0.000000 -0.000000 0.000000 0.000000 -0.000000 0.000000 0.000000 0.000000 0.000000 0.000000 0.000000 0.000000 0.000000 -0.000000 0.000000 0.000000 -0.000000 0.000000 0.000000 -0.000000 0.000000 0.000000 -0.000000 0.000000 0.000000 0.000000 0.000000 0.000000 0.000000 0.000000 0.000000 -0.000000 0.000000 -45.017209 -0.000000 0.000000 0.000000 -0.000000 0.000000 0.000000 0.000000 0.000000 0.000000 -0.000000 0.000000 -45.017209 -0.000000 0.000000 0.000000 -0.000000 0.000000 0.000000 0.000000 0.000000 0.000000
30.898272 80.875630 367.468631 -0.076265 0.101639 44.824836 -0.017557 -0.125851 -44.824788 -0.000000 0.000000 0.000000 -0.000000 0.000000 0.000000 0.000000 0.000000 0.000000 -0.000000 0.000000 0.000000 -0.000000 0.000000 0.000000 -1.209445 -1.843603 0.673368 -0.351409 1.757712 0.031944 0.000000 0.000000 0.000000 0.000000 0.000000 0.000000 -0.000000 0.000000 0.000000 -2.369604 -1.359169 0.992071 0.972149 3.803712 -4.052718 4.942219 -2.497818 3.509102 0.000000 0.000000 0.000000 0.000000 0.000000 0.000000 -0.017557 -0.125851 -44.824788 -0.000000 0.000000 0.000000 -0.000000 0.000000 0.000000 0.000000 0.000000 0.000000 -0.017557 -0.125851 -44.824788 -0.000000 0.000000 0.000000 -0.000000 0.000000 0.000000 0.000000 0.000000 0.000000
31.023195 80.965267 367.247473 -0.184473 0.209637 44.623217 -0.015960 -0.278789 -44.622918 -0.000000 0.000000 0.000000 -1.180738 -0.582632 -0.614678 0.000000 0.000000 0.000000 -0.000000 0.000000 0.000000 -0.000000 0.000000 0.000000 -2.239444 -3.894546 1.010937 -0.557195 3.609982 0.162862 0.000000 0.000000 0.000000 0.000000 0.000000 0.000000 -1.168399 -0.103116 0.325227 -3.032343 -2.218609 1.353958 1.729399 6.850029 -7.316128 9.302549 -4.065592 6.538605 0.000000 0.000000 0.000000 0.000000 0.000000 0.000000 -0.015960 -0.278789 -44.622918 -0.000000 0.000000 0.000000 -0.000000 0.000000 0.000000 0.000000 0.000000 0.000000 -0.015960 -0.278789 -44.622918 -0.416694 -0.740311 -0.166270 1.107503 0.854871 -0.304031 0.000000 0.000000 0.000000
31.108703 81.082176 367.027018 -0.324801 0.324090 44.412021 0.005215 -0.458805 -44.411081 -0.000000 0.000000 0.000000 -1.957500 -0.717648 -0.809365 0.000000 0.000000 0.000000 -0.149056 0.963477 0.000068 0.149076 -0.963474 0.002439 -3.052515 -6.122414 0.955864 -0.687125 5.530385 0.436396 0.000000 0.000000 0.000000 0.000000 0.000000 0.000000 -1.700580 -0.140177 0.475666 -3.829353 -2.768842 1.626399 2.233726 9.032421 -9.728035 12.794644 -4.825167 8.763247 0.000000 0.000000 0.000000 0.000000 0.000000 0.000000 0.005215 -0.458805 -44.411081 -0.000000 0.000000 0.000000 -0.000000 0.000000 0.000000 0.000000 0.000000 0.000000 0.005215 -0.458805 -44.411081 -0.551213 -1.058628 -0.230766 1.479602 1.156660 -0.394324 0.000000 0.000000 0.000000
31.154797 81.226358 366.807266 -0.497471 0.445102 44.190793 0.046453 -0.665905 -44.188591 -0.000000 0.000000 0.000000 -2.851522 -0.750380 -0.927149 0.000000 0.000000 0.000000 -0.192301 1.799868 -0.011442 0.192755 -1.799819 0.017491 -3.617723 -8.485798 0.461643 -0.815722 7.480528 0.892646 0.000000 0.000000 0.000000 0.000000 0.000000 0.000000 -2.201588 -0.167819 0.619120 -4.192477 -2.954794 1.673583 2.448041 10.266546 -11.237252 15.214269 -4.940174 9.944096 0.000000 0.000000 0.000000 0.000000 0.000000 0.000000 0.046453 -0.665905 -44.188591 -0.191831 -1.023485 -0.236599 -0.392061 0.374758 0.867760 0.000000 0.000000 0.000000 0.046453 -0.665905 -44.188591 -0.636532 -1.342755 -0.282169 1.731158 1.375009 -0.440067 0.000000 0.000000 0.000000
31.161476 81.397812 366.588216 -0.702750 0.572781 43.958956 -0.154905 -0.059604 -43.981246 -0.153153 0.030764 -0.044034 -2.929884 -1.139706 -0.925364 0.000000 0.000000 0.000000 0.691505 2.417351 0.042155 0.233239 -2.869570 0.039542 -3.912817 -10.933389 -0.502203 -1.014365 9.407842 1.561754 0.000000 0.000000 0.000000 0.000000 0.000000 0.000000 -1.747067 -0.641100 0.806991 -4.136483 -2.779229 1.509900 2.348441 10.484635 -11.804258 16.450890 -4.546950 9.942669 0.000000 0.000000 0.000000 0.000000 0.000000 0.000000 0.108311 -0.900104 -43.954593 -0.188928 -1.343348 -0.304360 -0.545435 0.274503 1.173490 0.000000 0.000000 0.000000 0.108311 -0.900104 -43.954593 -0.672690 -1.592940 -0.320088 1.862515 1.510006 -0.439277 0.000000 0.000000 0.000000
